<?xml version="1.0" standalone="no"?>
<!DOCTYPE svg PUBLIC "-//W3C//DTD SVG 20010904//EN"
 "http://www.w3.org/TR/2001/REC-SVG-20010904/DTD/svg10.dtd">
<svg version="1.0" xmlns="http://www.w3.org/2000/svg"
 width="300.000000pt" height="124.000000pt" viewBox="0 0 300.000000 124.000000"
 preserveAspectRatio="xMidYMid meet">
<metadata>
Created by potrace 1.10, written by Peter Selinger 2001-2011
</metadata>
<g transform="translate(0.000000,124.000000) scale(0.100000,-0.100000)"
fill="#000000" stroke="none">
<path d="M1091 896 c-32 -34 -68 -158 -77 -259 -7 -91 -24 -123 -61 -115 -20
4 -21 19 -8 104 l7 51 -42 7 c-30 5 -49 2 -70 -11 -27 -16 -60 -75 -60 -107 0
-21 -34 -46 -63 -46 -35 0 -54 22 -62 72 -9 50 8 68 66 68 24 0 39 5 43 15 4
11 -1 15 -17 15 -37 0 -51 14 -31 31 40 33 57 127 30 164 -13 18 -15 18 -40 2
-31 -20 -62 -77 -71 -132 -9 -48 -21 -65 -46 -65 -27 0 -23 -18 6 -32 22 -10
25 -17 25 -65 0 -47 4 -59 29 -84 34 -33 50 -35 96 -13 31 14 35 14 59 -1 24
-16 28 -16 62 4 l37 22 19 -21 c23 -24 23 -24 60 -2 28 16 30 16 39 -1 14 -23
35 -7 44 33 10 46 62 120 85 120 32 0 28 -53 -6 -68 -21 -10 -25 -18 -22 -45
4 -47 45 -65 100 -43 36 14 42 14 64 0 22 -15 25 -14 52 16 l29 32 7 -25 c3
-14 13 -27 21 -31 16 -6 62 11 99 36 15 11 19 11 23 0 7 -19 62 -44 84 -37 25
8 35 29 44 93 12 88 45 81 95 -18 36 -72 71 -90 127 -67 34 13 40 13 61 -1 21
-14 25 -13 52 6 36 27 38 27 59 1 16 -21 19 -21 49 -5 29 15 34 15 67 -1 34
-16 36 -16 58 5 29 27 31 27 66 1 27 -20 30 -20 60 -5 28 15 33 15 55 1 20
-14 29 -14 48 -4 13 7 26 16 29 22 4 5 19 0 37 -13 29 -21 31 -21 56 -5 25 17
27 17 46 0 19 -17 20 -17 35 21 39 98 48 114 67 114 12 0 18 -7 18 -24 0 -13
6 -29 14 -35 12 -10 19 -8 35 8 25 25 26 37 6 45 -9 3 -15 18 -15 36 0 44 -31
39 -74 -12 -20 -23 -36 -45 -36 -50 0 -4 -5 -8 -11 -8 -7 0 -9 16 -4 50 6 41
4 50 -8 50 -15 0 -37 -73 -37 -119 0 -24 -34 -54 -57 -49 -19 4 -22 29 -12
113 4 38 3 39 -34 48 -29 7 -43 5 -63 -8 -30 -20 -64 -72 -64 -101 0 -24 -29
-54 -54 -54 -9 0 -22 11 -28 26 -10 22 -7 34 24 97 45 90 60 147 56 217 -3 51
-5 55 -28 55 -36 0 -67 -53 -81 -139 -12 -72 -13 -73 -53 -92 -45 -21 -86 -74
-86 -110 0 -28 -27 -56 -49 -52 -17 4 -18 22 -10 107 4 45 4 45 -34 54 -65 16
-108 -21 -132 -113 -11 -42 -13 -45 -46 -45 -30 0 -37 5 -61 49 -14 27 -36 57
-48 66 l-22 17 31 13 c46 19 81 65 81 106 0 48 -15 73 -55 90 -66 27 -141 14
-206 -38 -47 -36 -70 -93 -76 -190 -6 -82 -28 -123 -61 -116 -19 4 -22 63 -8
131 7 30 5 37 -7 37 -11 0 -22 -18 -32 -52 -20 -67 -41 -98 -67 -98 -22 0 -22
-7 -2 113 5 29 3 37 -9 37 -16 0 -30 -36 -41 -101 -8 -46 -36 -71 -73 -67 -37
4 -41 29 -9 62 18 17 26 36 26 60 0 30 -4 37 -26 42 -30 8 -70 -18 -94 -61
-18 -32 -33 -36 -38 -11 -2 10 16 43 41 74 76 98 100 168 71 210 -20 29 -45
28 -73 -2z m56 -32 c13 -35 -48 -164 -79 -164 -14 0 -1 84 22 138 19 43 46 55
57 26z m1208 -3 c6 -21 -8 -96 -31 -158 -15 -42 -27 -52 -38 -34 -8 12 11 167
24 191 13 25 37 26 45 1z m-1622 -15 c13 -34 -32 -136 -60 -136 -15 0 -12 30
8 113 10 38 41 52 52 23z m1024 -28 c14 -13 23 -33 23 -51 0 -37 -48 -87 -85
-87 -27 0 -27 1 -20 51 7 49 6 51 -16 47 -20 -2 -25 -11 -33 -50 -5 -30 -13
-48 -22 -48 -8 0 -14 -9 -14 -20 0 -11 5 -20 11 -20 10 0 6 -54 -7 -102 -9
-31 -44 -21 -60 17 -39 93 10 243 91 276 41 16 108 10 132 -13z m-851 -200
c-11 -65 -27 -93 -56 -93 -19 0 -26 6 -28 24 -8 54 28 111 69 111 20 0 21 -4
15 -42z m1119 0 c-14 -85 -53 -122 -85 -83 -29 35 24 125 73 125 16 0 18 -5
12 -42z m470 10 c-18 -82 -29 -103 -55 -103 -21 0 -25 5 -28 35 -3 48 29 100
64 100 24 0 25 -2 19 -32z m-245 -25 c0 -52 -20 -83 -55 -83 -39 0 -46 47 -15
98 14 22 27 32 45 32 23 0 25 -3 25 -47z"/>
<path d="M342 872 c-40 -12 -89 -60 -113 -109 -32 -67 -33 -164 -1 -215 51
-82 175 -86 245 -8 43 47 61 98 61 175 0 67 -16 109 -55 138 -28 21 -99 31
-137 19z m98 -45 c35 -27 50 -62 50 -117 -1 -144 -121 -241 -200 -162 -16 16
-32 46 -36 67 -13 73 30 189 81 214 28 14 87 13 105 -2z"/>
<path d="M1430 373 c-155 -7 -502 -36 -708 -59 -184 -20 -232 -29 -271 -48
-26 -14 -53 -32 -60 -40 -18 -22 -10 -21 195 9 93 14 230 30 304 36 74 5 245
21 380 35 135 13 351 28 480 34 301 12 408 20 434 30 19 8 -597 10 -754 3z"/>
</g>
</svg>
